Coordinates
version=1
nRows=12
nColumns=24
inDegrees=yes

Units are S.I. units (second, meters, Newtons, ...)
Angles are in degrees.

endheader
time	pelvis_tilt	pelvis_list	pelvis_rotation	pelvis_tx	pelvis_ty	pelvis_tz	hip_flexion_r	hip_adduction_r	hip_rotation_r	knee_angle_r	ankle_angle_r	subtalar_angle_r	mtp_angle_r	hip_flexion_l	hip_adduction_l	hip_rotation_l	knee_angle_l	ankle_angle_l	subtalar_angle_l	mtp_angle_l	lumbar_extension	lumbar_bending	lumbar_rotation
      0.47900000	     -4.27593155	      4.65666251	     -1.65426316	     -0.79771461	      0.99981287	      0.30082245	     23.42620423	     -3.03554741	     -1.02947267	     -1.07534532	      2.23793486	     -5.15167507	      8.22001829	     -7.93420229	      9.58025556	     10.09536957	     -9.59779394	      8.08115713	    -13.49832661	      0.78099239	     -8.28539470	      3.76318434	     -7.06641523
      0.48316667	     -4.28174627	      4.62553562	     -1.68333476	     -0.79208980	      0.99916247	      0.30126501	     23.32070068	     -2.91972948	     -0.75097245	     -0.94201131	      1.97664329	     -5.06053559	      8.23269904	     -8.11452241	      9.53332698	      9.94883728	     -9.92558787	      8.14635449	    -13.24420793	      0.80744463	     -8.27650801	      3.79181111	     -6.94595542
      0.48733333	     -4.34569607	      4.60349506	     -1.70948750	     -0.78647317	      0.99841999	      0.30173153	     23.29023566	     -2.80887302	     -0.40136785	     -0.91085320	      1.72775310	     -5.13149293	      8.26966928	     -8.17835557	      9.49425665	      9.71129749	    -10.36839904	      8.32673734	    -12.83659074	      0.88608165	     -8.17418783	      3.79749264	     -6.78902758
      0.49150000	     -4.36621634	      4.54379550	     -1.75315096	     -0.78081994	      0.99776595	      0.30221332	     23.22549790	     -2.65838802	     -0.05752268	     -0.98043425	      1.42240909	     -5.22177767	      8.32473077	     -8.28683158	      9.42020740	      9.46832963	    -10.81336905	      8.45485189	    -12.47397342	      1.00826406	     -8.13802444	      3.85692125	     -6.65720497
      0.49566667	     -4.41670401	      4.47114503	     -1.81891017	     -0.77511648	      0.99709029	      0.30271276	     23.20361392	     -2.48766949	      0.32030549	     -1.13884013	      1.10585555	     -5.32252087	      8.37544807	     -8.36702499	      9.33821817	      9.23549692	    -11.24914844	      8.50288456	    -12.19380353	      1.12722602	     -8.03933910	      3.95111750	     -6.51473602
      0.49983333	     -4.42125069	      4.37783104	     -1.87374295	     -0.76944463	      0.99649464	      0.30323651	     23.14918662	     -2.29835935	      0.68697254	     -1.39285658	      0.72381937	     -5.60233462	      8.45263237	     -8.45128689	      9.23087370	      8.94368925	    -11.77809863	      8.64853545	    -11.78799515	      1.32738969	     -8.03773384	      4.02977820	     -6.34316174
      0.50400000	     -4.43379930	      4.28221089	     -1.94043271	     -0.76374130	      0.99591102	      0.30375607	     23.11270547	     -2.10508692	      1.07069424	     -1.71790191	      0.33803692	     -5.89723037	      8.54740121	     -8.51017574	      9.12709206	      8.64696880	    -12.33771371	      8.72029398	    -11.43575272	      1.58818750	     -7.99719279	      4.14164155	     -6.17822690
      0.50816667	     -4.47108737	      4.16801056	     -2.02039328	     -0.75801325	      0.99529919	      0.30430433	     23.12550548	     -1.88581452	      1.45096513	     -2.14022944	     -0.05215719	     -6.21682006	      8.64210796	     -8.52271563	      9.00614864	      8.33207175	    -12.93727966	      8.76908430	    -11.10383665	      1.87654789	     -7.93480049	      4.26244248	     -6.00661192
      0.51233333	     -4.47218016	      4.04347482	     -2.10280801	     -0.75226103	      0.99477502	      0.30485225	     23.10364463	     -1.65848594	      1.82103713	     -2.61362126	     -0.46304747	     -6.59560702	      8.74408229	     -8.54427989	      8.87610784	      7.98898362	    -13.58823145	      8.79947681	    -10.76610216	      2.22494833	     -7.91050929	      4.40899424	     -5.82887231
      0.51650000	     -4.49003143	      3.90921012	     -2.19548751	     -0.74650847	      0.99423332	      0.30541162	     23.12120127	     -1.41567543	      2.18569855	     -3.16444386	     -0.85964367	     -6.99901299	      8.84791632	     -8.52241690	      8.73929902	      7.62925571	    -14.29275331	      8.79328898	    -10.44005212	      2.62866077	     -7.86967840	      4.56159802	     -5.64610466
      0.52066667	     -4.47864345	      3.74799306	     -2.28024027	     -0.74072446	      0.99376145	      0.30596499	     23.11181794	     -1.15227871	      2.48881097	     -3.76159543	     -1.24497958	     -7.38357062	     10.00291135	     -8.49939903	      8.57141533	      7.25203767	    -15.05022442	      8.66229500	    -10.21079626	      7.45527597	     -7.85873928	      4.77203258	     -5.56830825
      0.52483333	     -4.50142780	      3.60986762	     -2.40519304	     -0.73494238	      0.99323945	      0.30654270	     23.18740265	     -0.89506530	      2.81835835	     -4.48046884	     -1.50260280	     -7.73231060	     10.00396081	     -8.42290913	      8.44486635	      6.89888966	    -15.83760548	      8.51191463	    -10.04925796	      7.50383341	     -7.80974023	      4.95027282	     -5.35525129
